<?xml version="1.0" encoding="utf-8"?>
<!-- Generator: Adobe Illustrator 16.0.0, SVG Export Plug-In . SVG Version: 6.00 Build 0)  -->
<!DOCTYPE svg PUBLIC "-//W3C//DTD SVG 1.1//EN" "http://www.w3.org/Graphics/SVG/1.1/DTD/svg11.dtd">
<svg version="1.1" xmlns="http://www.w3.org/2000/svg" xmlns:xlink="http://www.w3.org/1999/xlink" x="0px" y="0px"
	 width="1626.162px" height="658.859px" viewBox="0 0 1626.162 658.859" enable-background="new 0 0 1626.162 658.859"
	 xml:space="preserve">
<g id="Layer_1" display="none">
	
		<image display="inline" overflow="visible" width="1435" height="515" xlink:href="i/Screen Shot 2015-12-28 at 5.45.37 AM.png"  transform="matrix(1 0 0 1 66.2588 0)">
	</image>
</g>
<g id="bkg" display="none">
	<rect x="-39.741" y="-182" display="inline" fill="#FF5138" width="1704" height="900"/>
	
		<line display="inline" fill="#FF5138" stroke="#FFFFFF" stroke-width="4" stroke-miterlimit="10" x1="1045.759" y1="333.5" x2="1061.259" y2="308.5"/>
	
		<line display="inline" fill="#FF5138" stroke="#FFFFFF" stroke-width="4" stroke-miterlimit="10" x1="1045.759" y1="333.5" x2="1061.259" y2="308.5"/>
</g>
<g id="BE_Mask">
	<polygon points="-77.608,180.5 120.259,189.333 234.092,198.666 443.842,145 629.259,234.592 686.26,223.333 904.259,151.5 
		920.927,160 1026.759,233 1189.592,153 1223.759,150 1302.927,196.75 1644.259,313.333 1626.162,658.859 841.426,658.859 
		478.259,658.859 6.259,658.859 	"/>
</g>
<g id="background">
	<polyline fill="none" stroke="#FFFFFF" stroke-width="4" stroke-miterlimit="10" points="172.879,234.592 225.376,204.593 
		485.759,175 493.259,170 	"/>
	<polyline fill="none" stroke="#FFFFFF" stroke-width="4" stroke-miterlimit="10" points="225.759,237.5 250.759,221.5 
		504.759,187.5 514.759,178.5 	"/>
	<polyline fill="none" stroke="#FFFFFF" stroke-width="4" stroke-miterlimit="10" points="536.259,188 523.759,202.296 
		274.759,237.5 	"/>
	<polyline fill="none" stroke="#FFFFFF" stroke-width="4" stroke-miterlimit="10" points="1189.592,153 1215.759,150 1223.759,150 	
		"/>
	<polyline fill="none" stroke="#FFFFFF" stroke-width="4" stroke-miterlimit="10" points="1164.259,170.5 1210.259,166 
		1242.759,160.5 	"/>
	<polyline fill="none" stroke="#FFFFFF" stroke-width="4" stroke-miterlimit="10" points="1138.259,188 1218.759,181 1263.259,173 	
		"/>
	<polyline fill="none" stroke="#FFFFFF" stroke-width="4" stroke-miterlimit="10" points="1109.259,209 1223.759,196.5 
		1283.759,184.5 	"/>
	<line fill="none" stroke="#FFFFFF" stroke-width="4" stroke-miterlimit="10" x1="1109.925" y1="226" x2="1231.259" y2="212.5"/>
	<polyline fill="none" stroke="#FFFFFF" stroke-width="4" stroke-miterlimit="10" points="848.675,174 830.259,190 922.259,182 
		940.926,174 	"/>
	<polyline fill="none" stroke="#FFFFFF" stroke-width="4" stroke-miterlimit="10" points="798.259,186 779.259,202.667 
		765.654,214.405 926.259,199.333 956.926,186 	"/>
	<polyline fill="none" stroke="#FFFFFF" stroke-width="4" stroke-miterlimit="10" points="974.593,197 931.926,218.667 708.259,242 
			"/>
	<path fill="none" stroke="#FFFFFF" stroke-width="4" stroke-miterlimit="10" d="M1007.259,219.5"/>
	<path fill="none" stroke="#FFFFFF" stroke-width="4" stroke-miterlimit="10" d="M1414.592,230"/>
	<polyline fill="none" stroke="#FFFFFF" stroke-width="4" stroke-miterlimit="10" points="990.259,209 933.593,237.5 646.759,269 	
		"/>
	<polyline fill="none" stroke="#FFFFFF" stroke-width="4" stroke-miterlimit="10" points="325.259,257.5 352.759,243.999 
		542.257,216.666 554.923,198.666 	"/>
	<polyline fill="none" stroke="#FFFFFF" stroke-width="4" stroke-miterlimit="10" points="576.257,208 560.592,228.083 
		401.925,257.5 	"/>
	<polyline fill="none" stroke="#FFFFFF" stroke-width="4" stroke-miterlimit="10" points="610.923,228.083 597.589,254.666 
		550.256,262.666 	"/>
	<polyline fill="none" stroke="#FFFFFF" stroke-width="4" stroke-miterlimit="10" points="629.259,234.592 614.259,267.333 
		589.259,271.667 	"/>
	<polyline fill="none" stroke="#FFFFFF" stroke-width="4" stroke-miterlimit="10" points="757.759,198.666 754.759,202.296 
		729.759,232.75 626.259,277.834 	"/>
	<polyline fill="none" stroke="#FFFFFF" stroke-width="4" stroke-miterlimit="10" points="906.26,160 896.927,164.667 
		923.594,162.333 920.927,160 	"/>
	<polyline fill="none" stroke="#FFFFFF" stroke-width="4" stroke-miterlimit="10" points="650.926,234.592 632.26,265.5 
		609.259,277.834 	"/>
	<polyline fill="none" stroke="#FFFFFF" stroke-width="4" stroke-miterlimit="10" points="686.26,223.333 676.926,242 
		654.926,257.5 618.926,277.834 	"/>
	<polyline fill="none" stroke="#FFFFFF" stroke-width="4" stroke-miterlimit="10" points="720.26,209 716.925,223.333 696.926,242 
		638.26,269 	"/>
	<polygon fill="#FFFFFF" points="302.925,178.5 470.259,161.333 470.259,158 464.925,158 460.925,158 	"/>
	<polygon fill="#FFFFFF" points="435.509,148.5 446.259,149.667 450.759,145 443.842,145 441.259,147.333 	"/>
	<polygon fill="#FFFFFF" points="62.592,193 129.259,193 120.259,189.333 58.259,188 	"/>
	<polygon fill="#FFFFFF" points="62.925,215.333 181.925,211.333 183.592,209.333 190.925,206.667 64.925,211 	"/>
	<line fill="none" stroke="#FFFFFF" stroke-width="4" stroke-miterlimit="10" x1="62.925" y1="234.592" x2="90.925" y2="236.592"/>
	<line fill="none" stroke="#FFFFFF" stroke-width="4" stroke-miterlimit="10" x1="1045.759" y1="333.5" x2="1061.259" y2="308.5"/>
	<line fill="none" stroke="#FFFFFF" stroke-width="4" stroke-miterlimit="10" x1="1045.759" y1="333.5" x2="1061.259" y2="308.5"/>
	<line fill="none" stroke="#FFFFFF" stroke-width="4" stroke-miterlimit="10" x1="1045.759" y1="333.5" x2="1061.259" y2="308.5"/>
	<polyline fill="none" stroke="#FFFFFF" stroke-width="4" stroke-miterlimit="10" points="456.259,262.666 580.59,240.958 
		593.259,217 	"/>
</g>
<g id="BE:_helpers" display="none">
	<polygon display="inline" fill="#FFFFFF" stroke="#FFFFFF" stroke-width="0.25" stroke-miterlimit="10" points="976.009,235.083 
		1003.593,219.25 1008.26,223.25 982.927,236 970.842,238.167 	"/>
	<polygon display="inline" fill="#FFFFFF" stroke="#FFFFFF" stroke-width="0.25" stroke-miterlimit="10" points="1231.259,214.333 
		1270.259,206.667 1302.927,196.75 1267.093,202.333 1228.593,210.667 	"/>
</g>
<g id="FE_MASK" display="none">
</g>
<g id="foreground" display="none">
</g>
<g id="FE:_helpers" display="none">
	<g display="inline">
		<g>
			<polygon points="1633.806,275.09 1341.593,188 1109.925,226 1051.759,226 956.926,238.167 669.591,288 532.759,257.5 
				450.759,264.75 401.925,257.5 325.259,257.5 73.759,286 -4.741,308.5 -4.741,687 378.259,692 1306.259,684 1621.259,692 
				1644.259,683 1640.259,300.75 			"/>
		</g>
		<polyline fill="none" stroke="#FFFFFF" stroke-width="4" stroke-miterlimit="10" points="58.258,512 196.845,500.563 246.258,518 
					"/>
		<polyline fill="none" stroke="#FFFFFF" stroke-width="4" stroke-miterlimit="10" points="527.259,515 720.206,452.071 
			783.759,458.5 836.259,520 		"/>
		<polyline fill="none" stroke="#FFFFFF" stroke-width="4" stroke-miterlimit="10" points="876.259,520 901.259,466.5 
			836.259,408.5 969.591,316.166 1026.759,336.5 1019.509,349 997.259,366.666 904.259,391.148 		"/>
		<path fill="none" stroke="#FFFFFF" stroke-width="4" stroke-miterlimit="10" d="M904.259,391.148"/>
		<polyline fill="none" stroke="#FFFFFF" stroke-width="4" stroke-miterlimit="10" points="917.592,388.666 962.926,421.333 
			933.593,494.666 904.259,520 		"/>
		<polyline fill="none" stroke="#FFFFFF" stroke-width="4" stroke-miterlimit="10" points="933.593,515 984.926,472 1014.926,378 
			1000.759,366.666 		"/>
		<polyline fill="none" stroke="#FFFFFF" stroke-width="4" stroke-miterlimit="10" points="960.259,515 1039.593,448.667 
			1056.259,366.666 1263.237,447.714 1287.904,520 		"/>
		<polygon fill="none" stroke="#FFFFFF" stroke-width="4" stroke-miterlimit="10" points="1067.592,446.667 1172.259,495.334 
			1160.925,419.668 1099.592,396.667 1096.926,421.334 		"/>
		<polyline fill="none" stroke="#FFFFFF" stroke-width="4" stroke-miterlimit="10" points="1390.925,520 1361.592,471.333 
			1080.675,368.332 1247.592,334 1363.592,330.667 1431.592,366.666 1468.259,446 1507.592,448.667 		"/>
		<polyline fill="none" stroke="#FFFFFF" stroke-width="4" stroke-miterlimit="10" points="52.924,474.666 217.591,461.999 
			279.591,483.999 486.296,494.297 757.591,411 780.258,374.666 930.258,289.25 		"/>
		<polygon fill="none" stroke="#FFFFFF" stroke-width="4" stroke-miterlimit="10" points="1406.258,476.001 1156.258,387.334 
			1259.591,363.334 1337.591,363.334 1378.258,386.667 		"/>
		<polygon fill="none" stroke="#FFFFFF" stroke-width="4" stroke-miterlimit="10" points="1231.759,406 1330.259,440.5 
			1325.259,406 1308.259,396.667 1276.759,396.667 		"/>
		<polyline fill="none" stroke="#FFFFFF" stroke-width="4" stroke-miterlimit="10" points="1074.925,332.812 1239.759,303 
			1384.759,303 1483.759,344.5 1507.592,382 		"/>
		<polyline fill="none" stroke="#FFFFFF" stroke-width="4" stroke-miterlimit="10" points="48.259,437 228.259,424 314.259,452 
			485.259,460 728.259,391.148 779.259,318.666 		"/>
		<polyline fill="none" stroke="#FFFFFF" stroke-width="4" stroke-miterlimit="10" points="1514.259,313.333 1406.258,273 
			1228.259,273 1138.259,291 1173.509,263.5 		"/>
		<polyline fill="none" stroke="#FFFFFF" stroke-width="4" stroke-miterlimit="10" points="1473.592,244.667 1464.584,261.927 
			1431.592,244.667 1206.926,248 1189.592,257.5 1205.592,244.667 1205.592,236.667 1270.259,206.667 		"/>
		<polyline fill="none" stroke="#FFFFFF" stroke-width="4" stroke-miterlimit="10" points="58.258,402 239.591,386.665 
			345.591,417.332 491.257,425.332 698.258,369.332 745.591,311.332 		"/>
		<polyline fill="none" stroke="#FFFFFF" stroke-width="4" stroke-miterlimit="10" points="48.259,368.332 252.259,353 377.259,385 
			491.257,391.148 664.592,347.334 708.259,300 		"/>
		<polyline fill="none" stroke="#FFFFFF" stroke-width="4" stroke-miterlimit="10" points="725.592,303.667 854.926,288 
			856.592,302.333 		"/>
		<polyline fill="none" stroke="#FFFFFF" stroke-width="4" stroke-miterlimit="10" points="298.258,331.333 403.787,354.784 
			500.924,358 629.591,328 669.591,288 900.925,262.666 912.258,288 		"/>
		<polyline fill="none" stroke="#FFFFFF" stroke-width="4" stroke-miterlimit="10" points="66.259,332 126.259,332 287.259,303.667 
			401.925,257.5 		"/>
		<polyline fill="none" stroke="#FFFFFF" stroke-width="4" stroke-miterlimit="10" points="626.259,281 595.259,306.5 506.259,327 
			433.259,323 360.259,306.5 		"/>
		<polyline fill="none" stroke="#FFFFFF" stroke-width="4" stroke-miterlimit="10" points="422.259,284.917 471.592,294.75 
			510.259,295.834 562.259,284 		"/>
		<path fill="#FFFFFF" d="M800.259,414.333"/>
		<line fill="none" stroke="#FFFFFF" stroke-width="4" stroke-miterlimit="10" x1="73.759" y1="286" x2="325.259" y2="257.5"/>
		<polyline fill="none" stroke="#FFFFFF" stroke-width="4" stroke-miterlimit="10" points="956.926,238.167 978.259,273.5 
			967.593,281.5 1060.759,307 1045.259,335 1008.843,363.334 		"/>
		<polyline fill="none" stroke="#FFFFFF" stroke-width="4" stroke-miterlimit="10" points="1020.759,363.334 1079.009,316.166 
			1095.509,279.75 1034.509,266.5 1063.009,236 1051.759,226 		"/>
		<polyline fill="none" stroke="#FFFFFF" stroke-width="4" stroke-miterlimit="10" points="1035.759,357.5 1104.759,303 
			1125.592,255 1097.259,250.333 1115.592,227.333 1109.925,226 		"/>
		<polyline fill="none" stroke="#FFFFFF" stroke-width="4" stroke-miterlimit="10" points="1062.759,342.5 1143.759,278 
			1150.26,240.333 		"/>
		<polyline fill="none" stroke="#FFFFFF" stroke-width="4" stroke-miterlimit="10" points="482.759,265.5 496.259,265.5 
			514.759,265.5 527.759,262.666 532.759,257.5 		"/>
		<line fill="none" stroke="#FFFFFF" stroke-width="4" stroke-miterlimit="10" x1="1045.759" y1="333.5" x2="1061.259" y2="308.5"/>
		<polygon fill="#FFFFFF" points="910.342,387.354 787.009,420.376 904.652,392.95 908.279,392.104 		"/>
		<path fill="#FFFFFF" stroke="#FFFFFF" stroke-miterlimit="10" d="M352.759,310.333"/>
		<polygon fill="#FFFFFF" stroke="#FFFFFF" stroke-width="0.25" stroke-miterlimit="10" points="1071.478,440.812 1050.613,459.083 
			1072.446,448.819 1068.563,446.513 		"/>
		<path fill="#FFFFFF" d="M417.509,282.25"/>
		<path fill="#FFFFFF" d="M409.759,281"/>
		<path fill="#FFFFFF" d="M350.759,310.333"/>
		<polygon fill="#FFFFFF" points="347.009,313 417.509,282.25 450.759,264.75 446.356,263.221 357.759,306 		"/>
		<polygon fill="#FFFFFF" points="580.426,269.667 583.603,270.391 562.259,286 560.592,282.25 576.592,269.667 		"/>
		<polygon fill="#FFFFFF" points="1357.926,468 1382.092,476.001 1363.092,472 		"/>
		<polygon fill="#FFFFFF" points="1330.259,442.459 1349.093,450.459 1330.259,435.334 		"/>
		<polygon fill="#FFFFFF" points="1399.009,475.5 1424.884,486.375 1406.884,473.875 		"/>
		<polygon fill="#FFFFFF" points="706.509,454.75 732.509,445.25 726.259,452.071 		"/>
		<polygon fill="#FFFFFF" points="1170.592,263.5 1173.926,239 1172.259,238.167 1223.759,216.667 1178.259,239 1177.092,257.5 
			1183.592,259 1170.592,267.333 		"/>
		<polygon fill="#FFFFFF" points="1150.26,240.333 1129.26,234.297 1148.926,237.315 1172.926,230.333 1150.26,243.667 		"/>
		<path fill="#FFFFFF" d="M482.759,265.5"/>
		<polygon fill="#FFFFFF" points="1430.925,240 1433.925,240 1433.925,236.333 1477.592,226 1460.259,226 1430.925,233 		"/>
		<polygon fill="#FFFFFF" points="1487.592,247 1496.925,247 1496.925,242 1492.259,242 1492.259,244.5 1487.592,244.5 		"/>
		<line fill="none" stroke="#FFFFFF" stroke-width="4" stroke-miterlimit="10" x1="1358.259" y1="198.5" x2="1360.759" y2="192.5"/>
		<line fill="none" stroke="#FFFFFF" stroke-width="4" stroke-miterlimit="10" x1="1377.759" y1="209" x2="1381.759" y2="198.5"/>
		
			<line fill="none" stroke="#FFFFFF" stroke-width="4" stroke-miterlimit="10" x1="1397.259" y1="219.25" x2="1400.759" y2="205.542"/>
		<polyline fill="none" stroke="#FFFFFF" stroke-width="4" stroke-miterlimit="10" points="1416.759,230.333 1416.759,212.396 
			1424.759,212.396 		"/>
		<polygon fill="#FFFFFF" stroke="#FFFFFF" stroke-width="0.25" stroke-miterlimit="10" points="1288.26,209 1327.593,192 
			1341.593,192 1341.593,188 1328.927,188 		"/>
	</g>
</g>
</svg>
