<?xml version="1.0" encoding="utf-8"?>
<!-- Generator: Adobe Illustrator 16.0.0, SVG Export Plug-In . SVG Version: 6.00 Build 0)  -->
<!DOCTYPE svg PUBLIC "-//W3C//DTD SVG 1.1//EN" "http://www.w3.org/Graphics/SVG/1.1/DTD/svg11.dtd">
<svg version="1.1" id="Layer_1" xmlns="http://www.w3.org/2000/svg" xmlns:xlink="http://www.w3.org/1999/xlink" x="0px" y="0px"
	 width="1210px" height="252.667px" viewBox="0 0 1210 252.667" enable-background="new 0 0 1210 252.667" xml:space="preserve">
<g id="bkg">
	<polygon fill="#121212" points="2.5,18.417 26.5,18.417 100.167,14 155.167,1.333 159.167,0 168.833,4.333 179.167,9.167 
		188.167,14 196.774,18.5 205.167,22.167 214,26 220.833,30.667 230,34 236.198,38 244.167,38 260.25,32.167 275.75,26.917 
		290.473,22.792 306.834,16.333 309.917,16.667 332.25,11.667 353.75,6.167 360.25,6.167 368,11.667 375.5,16.667 381.75,22.167 
		388.25,26.917 394.75,32.167 414.75,34 439.501,33.833 442.335,26.726 452,18.5 461.75,10.417 472.75,2.667 483.001,2.667 
		487.75,1.417 496.75,6.167 503.25,11.667 512.5,16.667 515,21.696 517.5,22.167 530.001,18.5 537.5,18.5 544.5,19.5 553,22.833 
		560.833,25.083 568.168,28.333 572,28.333 593.333,34 601.501,41.167 604.425,45.167 607.501,41.167 615.667,34 637,28.333 
		648.167,25.083 656,23 664.5,19.5 671.5,18.5 679.334,18.667 691.5,22.167 694,22.167 696.5,16.667 705.75,11.667 712.25,6.167 
		721.25,1.417 725.668,2.667 736.25,2.667 747.25,10.417 756.584,18.46 766.665,26.726 769.833,34 794.25,34 814.25,32.167 
		820.75,26.917 827.25,22.167 833.5,16.667 841,11.667 848.75,6.167 855.25,6.167 860,9.167 876.75,11.667 899.083,16.667 
		902.25,16.667 918,22.167 933.25,26.917 948.75,32.167 964.834,38 973.375,38 979,34 988.166,30.667 995,26 1003.5,22.167 
		1012.227,18.417 1021.501,14 1029.834,9.167 1040.166,4.333 1049.834,0 1049.834,1.333 1053.834,1.333 1108.834,14 
		1143.834,25.667 1158.833,25.667 1182.666,19 1206.5,19 1210,19 1210,219 1210,252.667 0,252.667 -0.394,18.417 	"/>
</g>
<g id="scape">
	<g>
		<polyline fill="none" stroke="#FFFFFF" stroke-width="0.5" stroke-miterlimit="10" points="1206.5,221.667 1102.167,179 
			1066.5,175 1085.166,169 		"/>
		<polyline fill="none" stroke="#FFFFFF" stroke-width="0.5" stroke-miterlimit="10" points="1182.5,240.628 1108.834,208.667 
			1003.834,188.667 1047.834,171 		"/>
		<polyline fill="none" stroke="#FFFFFF" stroke-width="0.5" stroke-miterlimit="10" points="1118.5,240.628 937.833,201.333 
			1017.833,172.667 		"/>
		<polyline fill="none" stroke="#FFFFFF" stroke-width="0.5" stroke-miterlimit="10" points="988.166,242.333 921.5,224 
			937.833,243.667 		"/>
		<polyline fill="none" stroke="#FFFFFF" stroke-width="0.5" stroke-miterlimit="10" points="895.833,240.628 736.833,205.814 
			765.833,243.667 		"/>
		<polyline fill="none" stroke="#FFFFFF" stroke-width="0.5" stroke-miterlimit="10" points="730.166,243.667 708.499,209.667 
			683.166,200.333 688.499,172.667 705.166,127.667 699.166,129.667 792.499,93 799.832,128 797.166,126.333 863.499,181.333 
			853.5,174.833 811.833,200.667 804.667,200.167 904,219.833 920.334,242.5 		"/>
		<polygon fill="none" stroke="#FFFFFF" stroke-width="0.5" stroke-miterlimit="10" points="775,106.667 775,117.417 
			771.75,114.917 787.557,126.953 794.25,132.167 785.75,127.667 743.5,146.042 748.5,118.417 742.733,118.746 776.404,104.561 		
			"/>
		<polyline fill="none" stroke="#FFFFFF" stroke-width="0.5" stroke-miterlimit="10" points="697.5,240.628 634.834,212.333 
			653.5,155 662,137.667 654,139.417 785.5,93 710.167,80.167 663.5,78.667 633.75,93 620.25,126.667 604.844,127.343 		"/>
		<polyline fill="none" stroke="#FFFFFF" stroke-width="0.5" stroke-miterlimit="10" points="604.5,165.891 618,161.167 
			604.465,186.882 		"/>
		
			<line fill="none" stroke="#FFFFFF" stroke-width="0.5" stroke-miterlimit="10" x1="616.75" y1="241.667" x2="604.426" y2="233.6"/>
		<polygon fill="none" stroke="#FFFFFF" stroke-width="0.5" stroke-miterlimit="10" points="637,142.667 756,99.917 746,101.917 
			705.25,93 674,91.917 656.25,101.667 645.5,137.417 		"/>
		<polygon fill="none" stroke="#FFFFFF" stroke-width="0.5" stroke-miterlimit="10" points="669.5,127.417 723,108.667 
			714.25,110.167 701,106.167 685.5,106.167 678.75,109.917 677,122.917 		"/>
		<polyline fill="none" stroke="#FFFFFF" stroke-width="0.5" stroke-miterlimit="10" points="604.575,96.167 609.875,84.167 
			652.5,66.167 717.72,66.667 783,78.667 792,85.167 753.5,55.917 757,56.667 751.667,38.833 740,35.167 		"/>
		<polyline fill="none" stroke="#FFFFFF" stroke-width="0.5" stroke-miterlimit="10" points="604.575,69.417 642.75,53.917 
			721,54.167 757,61.667 731.75,43.917 634.25,43.917 612.75,51.667 620,47.667 617,41.167 		"/>
		<polyline fill="none" stroke="#FFFFFF" stroke-width="0.5" stroke-miterlimit="10" points="610.167,42.167 607.667,42.167 
			607.667,41.167 		"/>
		<polyline fill="none" stroke="#FFFFFF" stroke-width="0.5" stroke-miterlimit="10" points="633.333,39.5 633.333,37 615.667,34 		
			"/>
		<polyline fill="none" stroke="#FFFFFF" stroke-width="0.5" stroke-miterlimit="10" points="640.833,36.75 640.833,28.333 
			637,28.333 		"/>
		
			<line fill="none" stroke="#FFFFFF" stroke-width="0.5" stroke-miterlimit="10" x1="648.167" y1="32.542" x2="648.167" y2="24.667"/>
		<line fill="none" stroke="#FFFFFF" stroke-width="0.5" stroke-miterlimit="10" x1="656" y1="27.167" x2="656" y2="23"/>
		<line fill="none" stroke="#FFFFFF" stroke-width="0.5" stroke-miterlimit="10" x1="664.5" y1="22.167" x2="664.5" y2="19.5"/>
		<polyline fill="none" stroke="#FFFFFF" stroke-width="0.5" stroke-miterlimit="10" points="671.5,18.5 679.167,18.5 694,27.167 		
			"/>
		<polyline fill="none" stroke="#FFFFFF" stroke-width="0.5" stroke-miterlimit="10" points="691.5,22.167 729.25,38.417 
			729.25,42.167 		"/>
		<polyline fill="none" stroke="#FFFFFF" stroke-width="0.5" stroke-miterlimit="10" points="765.75,67.167 742.733,48.917 
			742.733,38.417 694,22.167 		"/>
		<polyline fill="none" stroke="#FFFFFF" stroke-width="0.5" stroke-miterlimit="10" points="905.5,116.792 816.333,93 810,99.667 
			820.5,136.167 905.5,205.814 988.166,172.667 		"/>
		<polyline fill="none" stroke="#FFFFFF" stroke-width="0.5" stroke-miterlimit="10" points="964.834,172.667 905.537,196 
			845.833,149.408 831.5,116.792 849.833,103 		"/>
		<polyline fill="none" stroke="#FFFFFF" stroke-width="0.5" stroke-miterlimit="10" points="941.834,175.417 905.537,188 
			863.833,157.333 868.833,159.647 857.167,136.333 884.079,111.076 828.833,72.333 804.167,80.333 816.333,93 		"/>
		<polyline fill="none" stroke="#FFFFFF" stroke-width="0.5" stroke-miterlimit="10" points="799.833,89.647 768.492,63.667 
			763.166,46 774.5,44.667 766.833,34 769.833,34 		"/>
		<line fill="none" stroke="#FFFFFF" stroke-width="0.5" stroke-miterlimit="10" x1="761.5" y1="36.75" x2="751.667" y2="38.833"/>
		<polyline fill="none" stroke="#FFFFFF" stroke-width="0.5" stroke-miterlimit="10" points="1206.5,155 1153.5,149.5 
			1135.166,157.333 1036.166,162.667 933.584,129.082 928.5,127.417 932.166,130.167 907.5,132.667 884.167,159.647 889.5,169 
			905.537,180.667 921.5,175.333 		"/>
		<polyline fill="none" stroke="#FFFFFF" stroke-width="0.5" stroke-miterlimit="10" points="794.25,34 789.5,37.792 
			800.667,51.333 776.5,56.667 783.167,72.333 806.167,90.833 		"/>
		<polyline fill="none" stroke="#FFFFFF" stroke-width="0.5" stroke-miterlimit="10" points="810,91.917 795,79.333 790,67.167 
			828.833,57 825.75,54.667 833.5,40.417 		"/>
		<polyline fill="none" stroke="#FFFFFF" stroke-width="0.5" stroke-miterlimit="10" points="1206.5,137.167 1146,133.167 
			1121.5,142.667 1034.5,147.417 917,111.917 908.25,96.167 842.75,59.417 		"/>
		<polyline fill="none" stroke="#FFFFFF" stroke-width="0.5" stroke-miterlimit="10" points="1206.5,121.667 1141.5,116.792 
			1105,127.417 1031,132.667 929.5,103 909.5,72.333 		"/>
		<polyline fill="none" stroke="#FFFFFF" stroke-width="0.5" stroke-miterlimit="10" points="1206.5,106.167 1136.5,102.5 
			1093.167,113.667 1030.5,117.292 943.75,94.042 923.5,69.417 		"/>
		<polyline fill="none" stroke="#FFFFFF" stroke-width="0.5" stroke-miterlimit="10" points="1206.5,91.917 1130,87.917 
			1078,101.167 1028.166,103 957.5,85.667 939,65.667 		"/>
		<polyline fill="none" stroke="#FFFFFF" stroke-width="0.5" stroke-miterlimit="10" points="973.375,58.042 985.875,67.667 
			1024.625,75.736 1054.625,74.917 1084.625,68.167 1092.75,70.667 1084.748,67.322 1062.25,57.917 1048.75,49.667 995,40.667 
			988.166,30.667 		"/>
		<polyline fill="none" stroke="#FFFFFF" stroke-width="0.5" stroke-miterlimit="10" points="1059.666,59.417 1040.166,62.701 
			1021.666,62.701 1001.617,58.668 993.666,53 		"/>
		<polyline fill="none" stroke="#FFFFFF" stroke-width="0.5" stroke-miterlimit="10" points="852.75,61.824 857,49.667 
			957.25,60.667 955,61.824 973.5,77.667 1027,89.647 1067.5,88.167 1112,77.667 		"/>
		<polyline fill="none" stroke="#FFFFFF" stroke-width="0.5" stroke-miterlimit="10" points="876.75,66.167 877.579,60.567 
			931.25,66.167 		"/>
		<polyline fill="none" stroke="#FFFFFF" stroke-width="0.5" stroke-miterlimit="10" points="1012.227,48.459 1019.25,50.542 
			1026.666,51.167 1033.059,49.499 		"/>
		<polyline fill="none" stroke="#FFFFFF" stroke-width="0.5" stroke-miterlimit="10" points="1209,78.667 1182.5,78.667 
			1114.5,67.167 1066.5,46.667 1001.5,34.667 995,26 		"/>
		<polyline fill="none" stroke="#FFFFFF" stroke-width="0.5" stroke-miterlimit="10" points="1206.5,59.417 1099.5,46.667 
			1089,42.167 		"/>
		<line fill="none" stroke="#FFFFFF" stroke-width="0.5" stroke-miterlimit="10" x1="1206.5" y1="38" x2="1198.833" y2="38"/>
		<polyline fill="none" stroke="#FFFFFF" stroke-width="0.5" stroke-miterlimit="10" points="1206.5,29 1163.5,27.333 
			1158.833,25.667 		"/>
		<line fill="none" stroke="#FFFFFF" stroke-width="0.5" stroke-miterlimit="10" x1="1182.666" y1="19" x2="1206.5" y2="19"/>
		<polyline fill="none" stroke="#FFFFFF" stroke-width="0.5" stroke-miterlimit="10" points="1053.834,1.333 1049.834,1.333 
			1049.834,0 		"/>
		<polyline fill="none" stroke="#FFFFFF" stroke-width="0.5" stroke-miterlimit="10" points="1108.834,14 1040.166,6 
			1040.166,4.333 		"/>
		<polyline fill="none" stroke="#FFFFFF" stroke-width="0.5" stroke-miterlimit="10" points="1164.834,38 1143.834,25.667 
			1033.062,12.667 1029.834,9.167 		"/>
		<polyline fill="none" stroke="#FFFFFF" stroke-width="0.5" stroke-miterlimit="10" points="1141.834,38 1132.166,32 
			1024.625,18.167 1020.834,14 		"/>
		<polyline fill="none" stroke="#FFFFFF" stroke-width="0.5" stroke-miterlimit="10" points="1122.5,39.417 1120,38 1017,23.583 
			1012.227,18.417 		"/>
		<polyline fill="none" stroke="#FFFFFF" stroke-width="0.5" stroke-miterlimit="10" points="1090,42.167 1009,29 1003.5,22.167 		
			"/>
		<polyline fill="none" stroke="#FFFFFF" stroke-width="0.5" stroke-miterlimit="10" points="1005,48.459 986,46.167 979,34 		"/>
		<polyline fill="none" stroke="#FFFFFF" stroke-width="0.5" stroke-miterlimit="10" points="988.166,53.201 978.082,50.146 
			973.375,38 		"/>
		<polyline fill="none" stroke="#FFFFFF" stroke-width="0.5" stroke-miterlimit="10" points="980.771,55.292 968.75,49.813 
			964.834,38 		"/>
		<line fill="none" stroke="#FFFFFF" stroke-width="0.5" stroke-miterlimit="10" x1="827.25" y1="38.833" x2="814.25" y2="32.167"/>
		<polyline fill="none" stroke="#FFFFFF" stroke-width="0.5" stroke-miterlimit="10" points="855.25,6.167 860,9.167 847.75,7.667 
			848.75,6.167 		"/>
		<polyline fill="none" stroke="#FFFFFF" stroke-width="0.5" stroke-miterlimit="10" points="876.75,11.667 887,18.5 847.75,15.083 
			841,11.667 		"/>
		<polyline fill="none" stroke="#FFFFFF" stroke-width="0.5" stroke-miterlimit="10" points="899.083,16.667 902.25,16.667 
			914.75,28.917 846,22.167 833.5,16.667 		"/>
		<polyline fill="none" stroke="#FFFFFF" stroke-width="0.5" stroke-miterlimit="10" points="918,22.167 929.25,35.5 
			941.834,41.167 845,30.667 827.25,22.167 		"/>
		<polyline fill="none" stroke="#FFFFFF" stroke-width="0.5" stroke-miterlimit="10" points="820.75,26.917 842.75,39.417 
			964.834,52.333 		"/>
		<polyline fill="none" stroke="#FFFFFF" stroke-width="0.5" stroke-miterlimit="10" points="976.5,55.292 958.5,46.542 952,40.417 
			948.75,32.167 		"/>
		<polyline fill="none" stroke="#FFFFFF" stroke-width="0.5" stroke-miterlimit="10" points="933.25,26.917 933.25,31.667 
			944.25,42.167 969.75,53.201 		"/>
		<polyline fill="none" stroke="#FFFFFF" stroke-width="0.5" stroke-miterlimit="10" points="747.25,10.417 723,9.167 712.25,6.167 
					"/>
		<polyline fill="none" stroke="#FFFFFF" stroke-width="0.5" stroke-miterlimit="10" points="736.25,2.667 726.25,2.667 
			721.25,1.417 		"/>
		<polyline fill="none" stroke="#FFFFFF" stroke-width="0.5" stroke-miterlimit="10" points="757,18.5 721.25,15.083 705.75,11.667 
					"/>
		<path fill="none" stroke="#FFFFFF" stroke-width="0.5" stroke-miterlimit="10" d="M696.5,16.667"/>
		<polyline fill="none" stroke="#FFFFFF" stroke-width="0.5" stroke-miterlimit="10" points="768.492,34 724,28.604 694,22.167 		
			"/>
		<polyline fill="none" stroke="#FFFFFF" stroke-width="0.5" stroke-miterlimit="10" points="766.665,26.726 723,22.167 
			696.5,16.667 		"/>
		<path fill="none" stroke="#FFFFFF" stroke-width="0.5" stroke-miterlimit="10" d="M847.75-155.731"/>
	</g>
</g>
<g id="fe">
	<polyline fill="none" stroke="#FFFFFF" stroke-width="0.5" stroke-miterlimit="10" points="2.5,221.667 106.833,179 142.5,175 
		123.833,169 	"/>
	<polyline fill="none" stroke="#FFFFFF" stroke-width="0.5" stroke-miterlimit="10" points="26.5,240.628 100.167,208.667 
		205.167,188.667 161.167,171 	"/>
	<polyline fill="none" stroke="#FFFFFF" stroke-width="0.5" stroke-miterlimit="10" points="90.5,240.628 271.167,201.333 
		191.167,172.667 	"/>
	<polyline fill="none" stroke="#FFFFFF" stroke-width="0.5" stroke-miterlimit="10" points="220.833,242.333 287.5,224 
		271.167,243.667 	"/>
	<polyline fill="none" stroke="#FFFFFF" stroke-width="0.5" stroke-miterlimit="10" points="313.167,240.628 472.167,205.814 
		443.167,243.667 	"/>
	<polyline fill="none" stroke="#FFFFFF" stroke-width="0.5" stroke-miterlimit="10" points="478.834,243.667 500.501,209.667 
		525.834,200.333 520.501,172.667 503.834,127.667 509.834,129.667 416.501,93 409.168,128 411.834,126.333 345.501,181.333 
		355.5,174.833 397.167,200.667 404.333,200.167 305,219.833 288.667,242.5 	"/>
	<polygon fill="none" stroke="#FFFFFF" stroke-width="0.5" stroke-miterlimit="10" points="434,106.667 434,117.417 437.25,114.917 
		421.443,126.953 414.75,132.167 423.25,127.667 465.5,146.042 460.5,118.417 466.267,118.746 432.596,104.561 	"/>
	<polyline fill="none" stroke="#FFFFFF" stroke-width="0.5" stroke-miterlimit="10" points="511.5,240.628 574.166,212.333 
		555.5,155 547,137.667 555,139.417 423.5,93 498.833,80.167 545.5,78.667 575.25,93 588.75,126.667 604.844,127.375 	"/>
	<polyline fill="none" stroke="#FFFFFF" stroke-width="0.5" stroke-miterlimit="10" points="604.507,165.894 591,161.167 
		604.467,186.753 	"/>
	<line fill="none" stroke="#FFFFFF" stroke-width="0.5" stroke-miterlimit="10" x1="592.25" y1="241.667" x2="604.5" y2="233.648"/>
	<polygon fill="none" stroke="#FFFFFF" stroke-width="0.5" stroke-miterlimit="10" points="572,142.667 453,99.917 463,101.917 
		503.75,93 535,91.917 552.75,101.667 563.5,137.417 	"/>
	<polygon fill="none" stroke="#FFFFFF" stroke-width="0.5" stroke-miterlimit="10" points="539.5,127.417 486,108.667 
		494.75,110.167 508,106.167 523.5,106.167 530.25,109.917 532,122.917 	"/>
	<polyline fill="none" stroke="#FFFFFF" stroke-width="0.5" stroke-miterlimit="10" points="604.425,96.167 599.125,84.167 
		556.5,66.167 491.28,66.667 426,78.667 417,85.167 455.5,55.917 452,56.667 457.333,38.833 469,35.167 	"/>
	<polyline fill="none" stroke="#FFFFFF" stroke-width="0.5" stroke-miterlimit="10" points="604.425,69.417 566.25,53.917 
		488,54.167 452,61.667 477.25,43.917 574.75,43.917 596.25,51.667 589,47.667 592,41.167 	"/>
	<polyline fill="none" stroke="#FFFFFF" stroke-width="0.5" stroke-miterlimit="10" points="598.833,42.167 601.333,42.167 
		601.333,41.167 604.575,45.167 607.667,41.167 	"/>
	<polyline fill="none" stroke="#FFFFFF" stroke-width="0.5" stroke-miterlimit="10" points="575.667,39.5 575.667,37 593.333,34 	
		"/>
	<polyline fill="none" stroke="#FFFFFF" stroke-width="0.5" stroke-miterlimit="10" points="568.167,36.75 568.167,28.333 
		572,28.333 	"/>
	
		<line fill="none" stroke="#FFFFFF" stroke-width="0.5" stroke-miterlimit="10" x1="560.833" y1="32.542" x2="560.833" y2="24.667"/>
	<line fill="none" stroke="#FFFFFF" stroke-width="0.5" stroke-miterlimit="10" x1="553" y1="27.167" x2="553" y2="23"/>
	<line fill="none" stroke="#FFFFFF" stroke-width="0.5" stroke-miterlimit="10" x1="544.5" y1="22.167" x2="544.5" y2="19.5"/>
	<polyline fill="none" stroke="#FFFFFF" stroke-width="0.5" stroke-miterlimit="10" points="537.5,18.5 529.833,18.5 515,27.167 	
		"/>
	<polyline fill="none" stroke="#FFFFFF" stroke-width="0.5" stroke-miterlimit="10" points="517.5,22.167 479.75,38.417 
		479.75,42.167 	"/>
	<polyline fill="none" stroke="#FFFFFF" stroke-width="0.5" stroke-miterlimit="10" points="443.25,67.167 466.267,48.917 
		466.267,38.417 515,22.167 	"/>
	<polyline fill="none" stroke="#FFFFFF" stroke-width="0.5" stroke-miterlimit="10" points="303.5,116.792 392.667,93 399,99.667 
		388.5,136.167 303.5,205.814 220.833,172.667 	"/>
	<polyline fill="none" stroke="#FFFFFF" stroke-width="0.5" stroke-miterlimit="10" points="244.167,172.667 303.462,196 
		363.167,149.408 377.5,116.792 359.167,103 	"/>
	<polyline fill="none" stroke="#FFFFFF" stroke-width="0.5" stroke-miterlimit="10" points="267.167,175.417 303.462,188 
		345.167,157.333 340.167,159.647 351.833,136.333 324.921,111.076 380.167,72.333 404.833,80.333 392.667,93 	"/>
	<polyline fill="none" stroke="#FFFFFF" stroke-width="0.5" stroke-miterlimit="10" points="409.167,89.647 440.508,63.667 
		445.834,46 434.5,44.667 442.167,34 439.167,34 	"/>
	<line fill="none" stroke="#FFFFFF" stroke-width="0.5" stroke-miterlimit="10" x1="447.5" y1="36.75" x2="457.333" y2="38.833"/>
	<polyline fill="none" stroke="#FFFFFF" stroke-width="0.5" stroke-miterlimit="10" points="2.5,155 55.5,149.5 73.833,157.333 
		172.833,162.667 275.417,129.082 280.5,127.417 276.833,130.167 301.5,132.667 324.833,159.647 319.5,169 303.462,180.667 
		287.5,175.333 	"/>
	<polyline fill="none" stroke="#FFFFFF" stroke-width="0.5" stroke-miterlimit="10" points="414.75,34 419.5,37.792 408.333,51.333 
		432.5,56.667 425.833,72.333 402.833,90.833 	"/>
	<polyline fill="none" stroke="#FFFFFF" stroke-width="0.5" stroke-miterlimit="10" points="399,91.917 414,79.333 419,67.167 
		380.167,57 383.25,54.667 375.5,40.417 	"/>
	<polyline fill="none" stroke="#FFFFFF" stroke-width="0.5" stroke-miterlimit="10" points="2.5,137.167 63,133.167 87.5,142.667 
		174.5,147.417 292,111.917 300.75,96.167 366.25,59.417 	"/>
	<polyline fill="none" stroke="#FFFFFF" stroke-width="0.5" stroke-miterlimit="10" points="2.5,121.667 67.5,116.792 104,127.417 
		178,132.667 279.5,103 299.5,72.333 	"/>
	<polyline fill="none" stroke="#FFFFFF" stroke-width="0.5" stroke-miterlimit="10" points="2.5,106.167 72.5,102.5 
		115.833,113.667 178.5,117.292 265.25,94.042 285.5,69.417 	"/>
	<polyline fill="none" stroke="#FFFFFF" stroke-width="0.5" stroke-miterlimit="10" points="2.5,91.917 79,87.917 131,101.167 
		180.833,103 251.5,85.667 270,65.667 	"/>
	<polyline fill="none" stroke="#FFFFFF" stroke-width="0.5" stroke-miterlimit="10" points="235.625,58.042 223.125,67.667 
		184.375,75.736 154.375,74.917 124.375,68.167 116.25,70.667 124.251,67.322 146.75,57.917 160.25,49.667 214,40.667 
		220.833,30.667 	"/>
	<polyline fill="none" stroke="#FFFFFF" stroke-width="0.5" stroke-miterlimit="10" points="149.333,59.417 168.833,62.701 
		187.333,62.701 207.383,58.668 215.333,53 	"/>
	<polyline fill="none" stroke="#FFFFFF" stroke-width="0.5" stroke-miterlimit="10" points="356.25,61.824 352,49.667 
		251.75,60.667 254,61.824 235.5,77.667 182,89.647 141.5,88.167 97,77.667 	"/>
	<polyline fill="none" stroke="#FFFFFF" stroke-width="0.5" stroke-miterlimit="10" points="332.25,66.167 331.421,60.567 
		277.75,66.167 	"/>
	<polyline fill="none" stroke="#FFFFFF" stroke-width="0.5" stroke-miterlimit="10" points="196.774,48.459 189.75,50.542 
		182.333,51.167 175.942,49.499 	"/>
	<polyline fill="none" stroke="#FFFFFF" stroke-width="0.5" stroke-miterlimit="10" points="0,78.667 26.5,78.667 94.5,67.167 
		142.5,46.667 207.5,34.667 214,26 	"/>
	<polyline fill="none" stroke="#FFFFFF" stroke-width="0.5" stroke-miterlimit="10" points="2.5,59.417 109.5,46.667 120,42.167 	
		"/>
</g>
<g id="bg">
	<line fill="none" stroke="#FFFFFF" stroke-width="0.5" stroke-miterlimit="10" x1="2.5" y1="38" x2="10.167" y2="38"/>
	<polyline fill="none" stroke="#FFFFFF" stroke-width="0.5" stroke-miterlimit="10" points="2.5,29 45.5,27.333 50.167,25.667 	"/>
	<line fill="none" stroke="#FFFFFF" stroke-width="0.5" stroke-miterlimit="10" x1="26.333" y1="19" x2="2.5" y2="19"/>
	<polyline fill="none" stroke="#FFFFFF" stroke-width="0.5" stroke-miterlimit="10" points="155.167,1.333 159.167,1.333 159.167,0 
			"/>
	<polyline fill="none" stroke="#FFFFFF" stroke-width="0.5" stroke-miterlimit="10" points="100.167,14 168.833,6 168.833,4.333 	
		"/>
	<polyline fill="none" stroke="#FFFFFF" stroke-width="0.5" stroke-miterlimit="10" points="44.167,38 65.167,25.667 
		175.938,12.667 179.167,9.167 	"/>
	<polyline fill="none" stroke="#FFFFFF" stroke-width="0.5" stroke-miterlimit="10" points="67.167,38 76.833,32 184.375,18.167 
		188.167,14 	"/>
	<polyline fill="none" stroke="#FFFFFF" stroke-width="0.5" stroke-miterlimit="10" points="86.5,39.417 89,38 192,23.583 
		196.774,18.417 	"/>
	<polyline fill="none" stroke="#FFFFFF" stroke-width="0.5" stroke-miterlimit="10" points="119,42.167 200,29 205.5,22.167 	"/>
	<polyline fill="none" stroke="#FFFFFF" stroke-width="0.5" stroke-miterlimit="10" points="204,48.459 223,46.167 230,34 	"/>
	<polyline fill="none" stroke="#FFFFFF" stroke-width="0.5" stroke-miterlimit="10" points="220.833,53.201 230.918,50.146 
		235.625,38 	"/>
	<polyline fill="none" stroke="#FFFFFF" stroke-width="0.5" stroke-miterlimit="10" points="228.229,55.292 240.25,49.813 
		244.167,38 	"/>
	<line fill="none" stroke="#FFFFFF" stroke-width="0.5" stroke-miterlimit="10" x1="381.75" y1="38.833" x2="394.75" y2="32.167"/>
	<polyline fill="none" stroke="#FFFFFF" stroke-width="0.5" stroke-miterlimit="10" points="353.75,6.167 349,9.167 361.25,7.667 
		360.25,6.167 	"/>
	<polyline fill="none" stroke="#FFFFFF" stroke-width="0.5" stroke-miterlimit="10" points="332.25,11.667 322,18.5 361.25,15.083 
		368,11.667 	"/>
	<polyline fill="none" stroke="#FFFFFF" stroke-width="0.5" stroke-miterlimit="10" points="309.917,16.667 306.75,16.667 
		294.25,28.917 363,22.167 375.5,16.667 	"/>
	<polyline fill="none" stroke="#FFFFFF" stroke-width="0.5" stroke-miterlimit="10" points="291,22.167 279.75,35.5 267.167,41.167 
		364,30.667 381.75,22.167 	"/>
	<polyline fill="none" stroke="#FFFFFF" stroke-width="0.5" stroke-miterlimit="10" points="388.25,26.917 366.25,39.417 
		244.167,52.333 	"/>
	<polyline fill="none" stroke="#FFFFFF" stroke-width="0.5" stroke-miterlimit="10" points="232.5,55.292 250.5,46.542 257,40.417 
		260.25,32.167 	"/>
	<polyline fill="none" stroke="#FFFFFF" stroke-width="0.5" stroke-miterlimit="10" points="275.75,26.917 275.75,31.667 
		264.75,42.167 239.25,53.201 	"/>
	<polyline fill="none" stroke="#FFFFFF" stroke-width="0.5" stroke-miterlimit="10" points="461.75,10.417 486,9.167 496.75,6.167 	
		"/>
	<polyline fill="none" stroke="#FFFFFF" stroke-width="0.5" stroke-miterlimit="10" points="472.75,2.667 482.75,2.667 
		487.75,1.417 	"/>
	<polyline fill="none" stroke="#FFFFFF" stroke-width="0.5" stroke-miterlimit="10" points="452,18.5 487.75,15.083 503.25,11.667 	
		"/>
	<path fill="none" stroke="#FFFFFF" stroke-width="0.5" stroke-miterlimit="10" d="M512.5,16.667"/>
	<polyline fill="none" stroke="#FFFFFF" stroke-width="0.5" stroke-miterlimit="10" points="440.508,34 485,28.604 515,22.167 	"/>
	<polyline fill="none" stroke="#FFFFFF" stroke-width="0.5" stroke-miterlimit="10" points="442.335,26.726 486,22.167 
		512.5,16.667 	"/>
</g>
</svg>
