<?xml version="1.0" encoding="utf-8"?>
<!-- Generator: Adobe Illustrator 16.0.0, SVG Export Plug-In . SVG Version: 6.00 Build 0)  -->
<!DOCTYPE svg PUBLIC "-//W3C//DTD SVG 1.1//EN" "http://www.w3.org/Graphics/SVG/1.1/DTD/svg11.dtd">
<svg version="1.1" xmlns="http://www.w3.org/2000/svg" xmlns:xlink="http://www.w3.org/1999/xlink" x="0px" y="0px" width="1210px"
	 height="256.717px" viewBox="0 0 1210 256.717" enable-background="new 0 0 1210 256.717" xml:space="preserve">
<g id="Layer_6">
	<polygon fill="#FFFFFF" points="65.965,243.667 1129.226,243.667 1152.393,243.667 1152.393,41.167 1149.15,44.981 
		1146.059,41.167 1138.059,34 1116.727,28.333 1112.893,28.333 1105.559,24.667 1097.727,23 1089.227,19.5 1082.227,18.5 
		1074.559,18.5 1062.227,22.167 1059.727,22.167 1057.227,16.667 1047.977,11.667 1041.477,6.167 1032.477,1.417 1027.625,2.592 
		1017.477,2.667 1006.477,10.417 996.727,18.5 987.061,26.726 959.477,34 939.477,32.167 932.977,26.917 926.477,22.167 
		920.227,16.667 912.727,11.667 904.977,6.167 898.477,6.167 876.977,11.667 854.643,16.667 851.477,16.667 835.727,22.167 
		820.477,26.917 804.977,32.167 788.893,38 780.352,38 774.727,34 765.561,30.667 758.727,26 750.227,22.167 741.5,18.417 
		732.893,14 723.893,9.167 713.561,4.333 703.893,0 699.893,1.333 644.893,14 609.893,25.667 607.497,26.937 605.334,25.667 
		570.334,14 515.334,1.333 511.334,0 501.666,4.333 491.334,9.167 482.334,14 473.727,18.417 465,22.167 456.5,26 449.666,30.667 
		440.5,34 434.875,38 426.334,38 410.25,32.167 394.75,26.917 379.5,22.167 363.75,16.667 360.584,16.667 338.25,11.667 
		316.75,6.167 310.25,6.167 302.5,11.667 295,16.667 288.75,22.167 282.25,26.917 275.75,32.167 255.75,34 231.333,34 
		228.165,26.726 218.5,18.5 208.75,10.417 197.75,2.667 187.75,2.667 182.75,1.417 173.75,6.167 167.25,11.667 158,16.667 
		155.5,22.092 153,22.167 140.667,18.5 133,18.5 126,19.5 117.5,23 109.667,24.667 102.333,28.333 98.5,28.333 77.167,34 
		69.167,41.167 66.075,69.417 66.075,96.167 66.344,127.343 66,165.891 65.965,186.883 	"/>
</g>
<g id="scape">
	<g>
		<g>
			<polyline fill="none" stroke="#222222" stroke-width="0.25" stroke-miterlimit="10" points="607.723,197.016 563.668,179 
				528,175 546.666,169 			"/>
			<path fill="none" stroke="#222222" stroke-width="0.25" stroke-miterlimit="10" d="M637.612,209.24"/>
			<path fill="none" stroke="#222222" stroke-width="0.25" stroke-miterlimit="10" d="M668,221.667"/>
			<polyline fill="none" stroke="#222222" stroke-width="0.25" stroke-miterlimit="10" points="570.334,208.667 465.334,188.667 
				509.334,171 			"/>
			<polyline fill="none" stroke="#222222" stroke-width="0.25" stroke-miterlimit="10" points="580,240.628 399.334,201.333 
				479.334,172.667 			"/>
			<polyline fill="none" stroke="#222222" stroke-width="0.25" stroke-miterlimit="10" points="449.666,242.333 383,224 
				399.334,243.667 			"/>
			<polyline fill="none" stroke="#222222" stroke-width="0.25" stroke-miterlimit="10" points="357.334,240.628 198.333,205.814 
				227.333,243.667 			"/>
			<polyline fill="none" stroke="#222222" stroke-width="0.25" stroke-miterlimit="10" points="191.666,243.667 169.999,209.667 
				144.666,200.333 149.999,172.667 166.666,127.667 160.666,129.667 253.999,93 261.332,128 258.666,126.333 324.999,181.333 
				315,174.833 273.333,200.667 266.167,200.167 365.5,219.833 381.834,242.5 			"/>
			<polygon fill="none" stroke="#222222" stroke-width="0.25" stroke-miterlimit="10" points="236.5,106.667 236.5,117.417 
				233.25,114.917 249.057,126.952 255.75,132.167 247.25,127.667 205,146.042 210,118.417 204.233,118.746 237.904,104.561 			"/>
			<polyline fill="none" stroke="#222222" stroke-width="0.25" stroke-miterlimit="10" points="159,240.628 96.334,212.333 115,155 
				123.5,137.667 115.5,139.417 247,93 171.667,80.167 125,78.667 95.25,93 81.75,126.667 66.344,127.343 			"/>
			<polyline fill="none" stroke="#222222" stroke-width="0.25" stroke-miterlimit="10" points="66,165.891 79.5,161.167 
				65.965,186.883 			"/>
			<polygon fill="none" stroke="#222222" stroke-width="0.25" stroke-miterlimit="10" points="98.5,142.667 217.5,99.917 
				207.5,101.917 166.75,93 135.5,91.917 117.75,101.667 107,137.417 			"/>
			<polygon fill="none" stroke="#222222" stroke-width="0.25" stroke-miterlimit="10" points="131,127.417 184.5,108.667 
				175.75,110.167 162.5,106.167 147,106.167 140.25,109.917 138.5,122.917 			"/>
			<polyline fill="none" stroke="#222222" stroke-width="0.25" stroke-miterlimit="10" points="66.075,96.167 71.375,84.167 
				114,66.167 179.22,66.667 244.5,78.667 253.5,85.167 215,55.917 218.5,56.667 213.167,38.833 201.5,35.167 			"/>
			<polyline fill="none" stroke="#222222" stroke-width="0.25" stroke-miterlimit="10" points="66.075,69.417 104.25,53.917 
				182.5,54.167 218.5,61.667 193.25,43.917 95.75,43.917 74.25,51.667 81.5,47.667 78.5,41.167 			"/>
			<polyline fill="none" stroke="#222222" stroke-width="0.25" stroke-miterlimit="10" points="71.667,42.167 69.167,42.167 
				69.167,41.167 			"/>
			<polyline fill="none" stroke="#222222" stroke-width="0.25" stroke-miterlimit="10" points="94.833,39.5 94.833,37 77.167,34 			
				"/>
			<polyline fill="none" stroke="#222222" stroke-width="0.25" stroke-miterlimit="10" points="102.333,36.75 102.333,28.333 
				98.5,28.333 			"/>
			
				<line fill="none" stroke="#222222" stroke-width="0.25" stroke-miterlimit="10" x1="109.667" y1="32.542" x2="109.667" y2="24.667"/>
			<line fill="none" stroke="#222222" stroke-width="0.25" stroke-miterlimit="10" x1="117.5" y1="27.167" x2="117.5" y2="23"/>
			<line fill="none" stroke="#222222" stroke-width="0.25" stroke-miterlimit="10" x1="126" y1="22.167" x2="126" y2="19.5"/>
			<polyline fill="none" stroke="#222222" stroke-width="0.25" stroke-miterlimit="10" points="133,18.5 140.667,18.5 155.5,27.167 
							"/>
			<polyline fill="none" stroke="#222222" stroke-width="0.25" stroke-miterlimit="10" points="153,22.167 190.75,38.417 
				190.75,42.167 			"/>
			<polyline fill="none" stroke="#222222" stroke-width="0.25" stroke-miterlimit="10" points="227.25,67.167 204.233,48.917 
				204.233,38.417 155.5,22.167 			"/>
			<polyline fill="none" stroke="#222222" stroke-width="0.25" stroke-miterlimit="10" points="367,116.792 277.833,93 
				271.5,99.667 282,136.167 367,205.814 449.666,172.667 			"/>
			<polyline fill="none" stroke="#222222" stroke-width="0.25" stroke-miterlimit="10" points="426.334,172.667 367.037,196 
				307.333,149.407 293,116.792 311.333,103 			"/>
			<polyline fill="none" stroke="#222222" stroke-width="0.25" stroke-miterlimit="10" points="403.334,175.417 367.037,188 
				325.333,157.333 330.333,159.647 318.667,136.333 345.579,111.076 290.333,72.333 265.667,80.333 277.833,93 			"/>
			<polyline fill="none" stroke="#222222" stroke-width="0.25" stroke-miterlimit="10" points="261.333,89.647 229.992,63.667 
				224.666,46 236,44.667 228.333,34 231.333,34 			"/>
			<line fill="none" stroke="#222222" stroke-width="0.25" stroke-miterlimit="10" x1="223" y1="36.75" x2="213.167" y2="38.833"/>
			<polyline fill="none" stroke="#222222" stroke-width="0.25" stroke-miterlimit="10" points="255.75,34 251,37.792 
				262.167,51.333 238,56.667 244.667,72.333 267.667,90.833 			"/>
			<polyline fill="none" stroke="#222222" stroke-width="0.25" stroke-miterlimit="10" points="271.5,91.917 256.5,79.333 
				251.5,67.167 290.333,57 287.25,54.667 295,40.417 			"/>
			<path fill="none" stroke="#222222" stroke-width="0.25" stroke-miterlimit="10" d="M641.316,135.402"/>
			<path fill="none" stroke="#222222" stroke-width="0.25" stroke-miterlimit="10" d="M668,137.167"/>
			<polyline fill="none" stroke="#222222" stroke-width="0.25" stroke-miterlimit="10" points="607.57,117.14 603,116.792 
				566.5,127.417 492.5,132.667 391,103 371,72.333 			"/>
			<path fill="none" stroke="#222222" stroke-width="0.25" stroke-miterlimit="10" d="M638.709,119.47"/>
			<path fill="none" stroke="#222222" stroke-width="0.25" stroke-miterlimit="10" d="M668,121.667"/>
			<path fill="none" stroke="#222222" stroke-width="0.25" stroke-miterlimit="10" d="M608.416,103.045"/>
			<path fill="none" stroke="#222222" stroke-width="0.25" stroke-miterlimit="10" d="M637.616,104.575"/>
			<path fill="none" stroke="#222222" stroke-width="0.25" stroke-miterlimit="10" d="M637.616,104.575"/>
			<path fill="none" stroke="#222222" stroke-width="0.25" stroke-miterlimit="10" d="M641.251,90.518"/>
			<path fill="none" stroke="#222222" stroke-width="0.25" stroke-miterlimit="10" d="M668,91.917"/>
			<polyline fill="none" stroke="#222222" stroke-width="0.25" stroke-miterlimit="10" points="434.875,58.042 447.375,67.667 
				486.125,75.736 516.125,74.917 546.125,68.167 554.25,70.667 546.248,67.322 523.75,57.917 510.25,49.667 456.5,40.667 
				449.666,30.667 			"/>
			<polyline fill="none" stroke="#222222" stroke-width="0.25" stroke-miterlimit="10" points="521.166,59.417 501.666,62.701 
				483.166,62.701 463.117,58.668 455.166,53 			"/>
			<polyline fill="none" stroke="#222222" stroke-width="0.25" stroke-miterlimit="10" points="314.25,61.824 318.5,49.667 
				418.75,60.667 416.5,61.824 435,77.667 488.5,89.647 529,88.167 573.5,77.667 			"/>
			<polyline fill="none" stroke="#222222" stroke-width="0.25" stroke-miterlimit="10" points="338.25,66.167 339.079,60.567 
				392.75,66.167 			"/>
			<polyline fill="none" stroke="#222222" stroke-width="0.25" stroke-miterlimit="10" points="473.727,48.459 480.75,50.542 
				488.166,51.167 494.559,49.499 			"/>
			<polyline fill="none" stroke="#222222" stroke-width="0.25" stroke-miterlimit="10" points="607.613,72.513 576,67.167 
				528,46.667 463,34.667 456.5,26 			"/>
			<path fill="none" stroke="#222222" stroke-width="0.25" stroke-miterlimit="10" d="M607.613,72.513"/>
			<path fill="none" stroke="#222222" stroke-width="0.25" stroke-miterlimit="10" d="M637.614,77.586"/>
			<polyline fill="none" stroke="#222222" stroke-width="0.25" stroke-miterlimit="10" points="607.878,52.252 561,46.667 
				550.5,42.167 			"/>
			<path fill="none" stroke="#222222" stroke-width="0.25" stroke-miterlimit="10" d="M641.669,56.279"/>
			<path fill="none" stroke="#222222" stroke-width="0.25" stroke-miterlimit="10" d="M668,59.417"/>
			<path fill="none" stroke="#222222" stroke-width="0.25" stroke-miterlimit="10" d="M637.611,27.822"/>
			<path fill="none" stroke="#222222" stroke-width="0.25" stroke-miterlimit="10" d="M668,29"/>
			<polyline fill="none" stroke="#222222" stroke-width="0.25" stroke-miterlimit="10" points="515.334,1.333 511.334,1.333 
				511.334,0 			"/>
			<polyline fill="none" stroke="#222222" stroke-width="0.25" stroke-miterlimit="10" points="570.334,14 501.666,6 501.666,4.333 
							"/>
			<polyline fill="none" stroke="#222222" stroke-width="0.25" stroke-miterlimit="10" points="603.334,38 593.666,32 
				486.125,18.167 482.334,14 			"/>
			<polyline fill="none" stroke="#222222" stroke-width="0.25" stroke-miterlimit="10" points="584,39.417 581.5,38 478.5,23.583 
				473.727,18.417 			"/>
			<polyline fill="none" stroke="#222222" stroke-width="0.25" stroke-miterlimit="10" points="551.5,42.167 470.5,29 465,22.167 
							"/>
			<polyline fill="none" stroke="#222222" stroke-width="0.25" stroke-miterlimit="10" points="466.5,48.459 447.5,46.167 440.5,34 
							"/>
			<polyline fill="none" stroke="#222222" stroke-width="0.25" stroke-miterlimit="10" points="449.666,53.201 439.582,50.146 
				434.875,38 			"/>
			<polyline fill="none" stroke="#222222" stroke-width="0.25" stroke-miterlimit="10" points="442.271,55.292 430.25,49.813 
				426.334,38 			"/>
			
				<line fill="none" stroke="#222222" stroke-width="0.25" stroke-miterlimit="10" x1="288.75" y1="38.833" x2="275.75" y2="32.167"/>
			<polyline fill="none" stroke="#222222" stroke-width="0.25" stroke-miterlimit="10" points="316.75,6.167 321.5,9.167 
				309.25,7.667 310.25,6.167 			"/>
			<polyline fill="none" stroke="#222222" stroke-width="0.25" stroke-miterlimit="10" points="338.25,11.667 348.5,18.5 
				309.25,15.083 302.5,11.667 			"/>
			<polyline fill="none" stroke="#222222" stroke-width="0.25" stroke-miterlimit="10" points="360.584,16.667 363.75,16.667 
				376.25,28.917 307.5,22.167 295,16.667 			"/>
			<polyline fill="none" stroke="#222222" stroke-width="0.25" stroke-miterlimit="10" points="379.5,22.167 390.75,35.5 
				403.334,41.167 306.5,30.667 288.75,22.167 			"/>
			<polyline fill="none" stroke="#222222" stroke-width="0.25" stroke-miterlimit="10" points="282.25,26.917 304.25,39.417 
				426.334,52.333 			"/>
			<polyline fill="none" stroke="#222222" stroke-width="0.25" stroke-miterlimit="10" points="438,55.292 420,46.542 413.5,40.417 
				410.25,32.167 			"/>
			<polyline fill="none" stroke="#222222" stroke-width="0.25" stroke-miterlimit="10" points="394.75,26.917 394.75,31.667 
				405.75,42.167 431.25,53.201 			"/>
			<polyline fill="none" stroke="#222222" stroke-width="0.25" stroke-miterlimit="10" points="208.75,10.417 184.5,9.167 
				173.75,6.167 			"/>
			<polyline fill="none" stroke="#222222" stroke-width="0.25" stroke-miterlimit="10" points="197.75,2.667 187.75,2.667 
				182.75,1.417 			"/>
			<polyline fill="none" stroke="#222222" stroke-width="0.25" stroke-miterlimit="10" points="218.5,18.5 182.75,15.083 
				167.25,11.667 			"/>
			<path fill="none" stroke="#222222" stroke-width="0.25" stroke-miterlimit="10" d="M158,16.667"/>
			<polyline fill="none" stroke="#222222" stroke-width="0.25" stroke-miterlimit="10" points="229.992,34 185.5,28.604 
				155.5,22.167 			"/>
			<polyline fill="none" stroke="#222222" stroke-width="0.25" stroke-miterlimit="10" points="228.165,26.726 184.5,22.167 
				158,16.667 			"/>
			<path fill="#FFFFFF" stroke="#222222" stroke-miterlimit="10" d="M309.25-155.731"/>
		</g>
	</g>
	<polyline fill="none" stroke="#222222" stroke-width="0.25" stroke-miterlimit="10" points="607.918,88.775 591.5,87.917 
		539.5,101.167 489.666,103 419,85.667 400.5,65.667 	"/>
	<path fill="none" stroke="#222222" stroke-width="0.25" stroke-miterlimit="10" d="M607.918,88.775"/>
	<path fill="none" stroke="#222222" stroke-width="0.25" stroke-miterlimit="10" d="M637.438,90.318"/>
</g>
<g id="fe">
	<polyline fill="none" stroke="#222222" stroke-width="0.25" stroke-miterlimit="10" points="607.613,196.971 651.559,179 
		687.227,175 668.561,169 	"/>
	<path fill="none" stroke="#222222" stroke-width="0.25" stroke-miterlimit="10" d="M607.613,196.971"/>
	<path fill="none" stroke="#222222" stroke-width="0.25" stroke-miterlimit="10" d="M577.613,209.24"/>
	<path fill="none" stroke="#222222" stroke-width="0.25" stroke-miterlimit="10" d="M577.613,209.24"/>
	<path fill="none" stroke="#222222" stroke-width="0.25" stroke-miterlimit="10" d="M547.227,221.667"/>
	<polyline fill="none" stroke="#222222" stroke-width="0.25" stroke-miterlimit="10" points="644.893,208.667 749.893,188.667 
		705.893,171 	"/>
	<polyline fill="none" stroke="#222222" stroke-width="0.25" stroke-miterlimit="10" points="635.227,240.628 815.893,201.333 
		735.893,172.667 	"/>
	<polyline fill="none" stroke="#222222" stroke-width="0.25" stroke-miterlimit="10" points="765.561,242.333 832.227,224 
		815.893,243.667 	"/>
	<polyline fill="none" stroke="#222222" stroke-width="0.25" stroke-miterlimit="10" points="857.893,240.628 1016.893,205.814 
		987.893,243.667 	"/>
	<polyline fill="none" stroke="#222222" stroke-width="0.25" stroke-miterlimit="10" points="1023.561,243.667 1045.227,209.667 
		1070.561,200.333 1065.227,172.667 1048.561,127.667 1054.561,129.667 961.227,93 953.895,128 956.561,126.333 890.227,181.333 
		900.227,174.833 941.893,200.667 949.059,200.167 849.727,219.833 833.393,242.5 	"/>
	<polygon fill="none" stroke="#222222" stroke-width="0.25" stroke-miterlimit="10" points="978.727,106.667 978.727,117.417 
		981.977,114.917 966.17,126.952 959.477,132.167 967.977,127.667 1010.227,146.042 1005.227,118.417 1010.992,118.746 
		977.322,104.561 	"/>
	<polyline fill="none" stroke="#222222" stroke-width="0.25" stroke-miterlimit="10" points="1056.227,240.628 1118.893,212.333 
		1100.227,155 1091.727,137.667 1099.727,139.417 968.227,93 1043.559,80.167 1090.227,78.667 1119.977,93 1133.477,126.667 
		1149.57,127.374 	"/>
	<polyline fill="none" stroke="#222222" stroke-width="0.25" stroke-miterlimit="10" points="1149.232,165.894 1135.727,161.167 
		1149.193,186.753 	"/>
	
		<line fill="none" stroke="#222222" stroke-width="0.25" stroke-miterlimit="10" x1="1136.977" y1="241.667" x2="1149.227" y2="233.648"/>
	<polygon fill="none" stroke="#222222" stroke-width="0.25" stroke-miterlimit="10" points="1116.727,142.667 997.727,99.917 
		1007.727,101.917 1048.477,93 1079.727,91.917 1097.477,101.667 1108.227,137.417 	"/>
	<polygon fill="none" stroke="#222222" stroke-width="0.25" stroke-miterlimit="10" points="1084.227,127.417 1030.727,108.667 
		1039.477,110.167 1052.727,106.167 1068.227,106.167 1074.977,109.917 1076.727,122.917 	"/>
	<polyline fill="none" stroke="#222222" stroke-width="0.25" stroke-miterlimit="10" points="1149.15,96.167 1143.852,84.167 
		1101.227,66.167 1036.006,66.667 970.727,78.667 961.727,85.167 1000.227,55.917 996.727,56.667 1002.059,38.833 1013.727,35.167 	
		"/>
	<polyline fill="none" stroke="#222222" stroke-width="0.25" stroke-miterlimit="10" points="1149.15,69.417 1110.977,53.917 
		1032.727,54.167 996.727,61.667 1021.977,43.917 1119.477,43.917 1140.977,51.667 1133.727,47.667 1136.727,41.167 	"/>
	<polyline fill="none" stroke="#222222" stroke-width="0.25" stroke-miterlimit="10" points="1143.559,42.167 1146.059,42.167 
		1146.059,41.167 1149.301,45.167 1152.393,41.167 	"/>
	<polyline fill="none" stroke="#222222" stroke-width="0.25" stroke-miterlimit="10" points="1120.393,39.5 1120.393,37 
		1138.059,34 	"/>
	<polyline fill="none" stroke="#222222" stroke-width="0.25" stroke-miterlimit="10" points="1112.893,36.75 1112.893,28.333 
		1116.727,28.333 	"/>
	
		<line fill="none" stroke="#222222" stroke-width="0.25" stroke-miterlimit="10" x1="1105.559" y1="32.542" x2="1105.559" y2="24.667"/>
	<line fill="none" stroke="#222222" stroke-width="0.25" stroke-miterlimit="10" x1="1097.727" y1="27.167" x2="1097.727" y2="23"/>
	
		<line fill="none" stroke="#222222" stroke-width="0.25" stroke-miterlimit="10" x1="1089.227" y1="22.167" x2="1089.227" y2="19.5"/>
	<polyline fill="none" stroke="#222222" stroke-width="0.25" stroke-miterlimit="10" points="1082.227,18.5 1074.559,18.5 
		1059.727,27.167 	"/>
	<polyline fill="none" stroke="#222222" stroke-width="0.25" stroke-miterlimit="10" points="1062.227,22.167 1024.477,38.417 
		1024.477,42.167 	"/>
	<polyline fill="none" stroke="#222222" stroke-width="0.25" stroke-miterlimit="10" points="987.977,67.167 1010.992,48.917 
		1010.992,38.417 1059.727,22.167 	"/>
	<polyline fill="none" stroke="#222222" stroke-width="0.25" stroke-miterlimit="10" points="848.227,116.792 937.393,93 
		943.727,99.667 933.227,136.167 848.227,205.814 765.561,172.667 	"/>
	<polyline fill="none" stroke="#222222" stroke-width="0.25" stroke-miterlimit="10" points="788.893,172.667 848.189,196 
		907.893,149.407 922.227,116.792 903.893,103 	"/>
	<polyline fill="none" stroke="#222222" stroke-width="0.25" stroke-miterlimit="10" points="811.893,175.417 848.189,188 
		889.893,157.333 884.893,159.647 896.559,136.333 869.646,111.076 924.893,72.333 949.559,80.333 937.393,93 	"/>
	<polyline fill="none" stroke="#222222" stroke-width="0.25" stroke-miterlimit="10" points="953.893,89.647 985.234,63.667 
		990.561,46 979.227,44.667 986.893,34 983.893,34 	"/>
	
		<line fill="none" stroke="#222222" stroke-width="0.25" stroke-miterlimit="10" x1="992.227" y1="36.75" x2="1002.059" y2="38.833"/>
	<path fill="none" stroke="#222222" stroke-width="0.25" stroke-miterlimit="10" d="M580.248,152.12"/>
	<polyline fill="none" stroke="#222222" stroke-width="0.25" stroke-miterlimit="10" points="832.227,175.333 848.189,180.667 
		864.227,169 869.559,159.647 846.227,132.667 821.561,130.167 825.227,127.417 820.143,129.081 717.561,162.667 618.561,157.333 
		607.613,152.656 596.666,157.333 497.666,162.667 395.084,129.081 390,127.417 393.666,130.167 369,132.667 345.667,159.647 
		351,169 367.037,180.667 383,175.333 	"/>
	<polyline fill="none" stroke="#222222" stroke-width="0.25" stroke-miterlimit="10" points="959.477,34 964.227,37.792 
		953.059,51.333 977.227,56.667 970.559,72.333 947.559,90.833 	"/>
	<polyline fill="none" stroke="#222222" stroke-width="0.25" stroke-miterlimit="10" points="943.727,91.917 958.727,79.333 
		963.727,67.167 924.893,57 927.977,54.667 920.227,40.417 	"/>
	<polyline fill="none" stroke="#222222" stroke-width="0.25" stroke-miterlimit="10" points="910.977,59.417 845.477,96.167 
		836.727,111.917 719.227,147.417 632.227,142.667 607.727,133.167 607.5,133.167 583,142.667 496,147.417 378.5,111.917 
		369.75,96.167 304.25,59.417 	"/>
	<path fill="none" stroke="#222222" stroke-width="0.25" stroke-miterlimit="10" d="M572.991,135.463"/>
	<path fill="none" stroke="#222222" stroke-width="0.25" stroke-miterlimit="10" d="M547.227,137.167"/>
	<polyline fill="none" stroke="#222222" stroke-width="0.25" stroke-miterlimit="10" points="607.57,117.14 612.227,116.792 
		648.727,127.417 722.727,132.667 824.227,103 844.227,72.333 	"/>
	<path fill="none" stroke="#222222" stroke-width="0.25" stroke-miterlimit="10" d="M575.419,119.552"/>
	<path fill="none" stroke="#222222" stroke-width="0.25" stroke-miterlimit="10" d="M547.227,121.667"/>
	<polyline fill="none" stroke="#222222" stroke-width="0.25" stroke-miterlimit="10" points="830.227,69.417 809.977,94.042 
		723.227,117.292 660.559,113.667 617.227,102.5 607.406,103.013 598,102.5 554.668,113.667 492,117.292 405.25,94.042 385,69.417 	
		"/>
	<path fill="none" stroke="#222222" stroke-width="0.25" stroke-miterlimit="10" d="M577.616,104.575"/>
	
		<line fill="none" stroke="#222222" stroke-width="0.25" stroke-miterlimit="10" x1="577.609" y1="90.328" x2="577.438" y2="90.318"/>
	<polyline fill="none" stroke="#222222" stroke-width="0.25" stroke-miterlimit="10" points="814.727,65.667 796.227,85.667 
		725.561,103 675.727,101.167 623.727,87.917 607.613,88.759 	"/>
	<polyline fill="none" stroke="#222222" stroke-width="0.25" stroke-miterlimit="10" points="780.352,58.042 767.852,67.667 
		729.102,75.736 699.102,74.917 669.102,68.167 660.977,70.667 668.979,67.322 691.477,57.917 704.977,49.667 758.727,40.667 
		765.561,30.667 	"/>
	<polyline fill="none" stroke="#222222" stroke-width="0.25" stroke-miterlimit="10" points="694.061,59.417 713.561,62.701 
		732.061,62.701 752.109,58.668 760.061,53 	"/>
	<polyline fill="none" stroke="#222222" stroke-width="0.25" stroke-miterlimit="10" points="900.977,61.824 896.727,49.667 
		796.477,60.667 798.727,61.824 780.227,77.667 726.727,89.647 686.227,88.167 641.727,77.667 	"/>
	<polyline fill="none" stroke="#222222" stroke-width="0.25" stroke-miterlimit="10" points="876.977,66.167 876.146,60.567 
		822.477,66.167 	"/>
	<polyline fill="none" stroke="#222222" stroke-width="0.25" stroke-miterlimit="10" points="741.5,48.459 734.477,50.542 
		727.061,51.167 720.668,49.499 	"/>
	<polyline fill="none" stroke="#222222" stroke-width="0.25" stroke-miterlimit="10" points="607.497,72.533 639.227,67.167 
		687.227,46.667 752.227,34.667 758.727,26 	"/>
	<polyline fill="none" stroke="#222222" stroke-width="0.25" stroke-miterlimit="10" points="607.611,52.222 654.227,46.667 
		664.727,42.167 	"/>
	<path fill="none" stroke="#222222" stroke-width="0.25" stroke-miterlimit="10" d="M547.227,59.417"/>
</g>
<g id="bg">
	<path fill="none" stroke="#222222" stroke-width="0.25" stroke-miterlimit="10" d="M584.166,19"/>
	<polyline fill="none" stroke="#222222" stroke-width="0.25" stroke-miterlimit="10" points="699.893,1.333 703.893,1.333 
		703.893,0 	"/>
	<polyline fill="none" stroke="#222222" stroke-width="0.25" stroke-miterlimit="10" points="644.893,14 713.561,6 713.561,4.333 	
		"/>
	<polyline fill="none" stroke="#222222" stroke-width="0.25" stroke-miterlimit="10" points="491.334,9.167 494.562,12.667 
		605.334,25.667 607.56,26.973 607.613,27.006 609.893,25.667 720.664,12.667 723.893,9.167 	"/>
	<path fill="none" stroke="#222222" stroke-width="0.25" stroke-miterlimit="10" d="M607.103,27.305"/>
	<path fill="none" stroke="#222222" stroke-width="0.25" stroke-miterlimit="10" d="M588.893,38"/>
	<polyline fill="none" stroke="#222222" stroke-width="0.25" stroke-miterlimit="10" points="611.893,38 621.561,32 729.102,18.167 
		732.893,14 	"/>
	<polyline fill="none" stroke="#222222" stroke-width="0.25" stroke-miterlimit="10" points="631.227,39.417 633.727,38 
		736.727,23.583 741.5,18.417 	"/>
	<polyline fill="none" stroke="#222222" stroke-width="0.25" stroke-miterlimit="10" points="663.727,42.167 744.727,29 
		750.227,22.167 	"/>
	<polyline fill="none" stroke="#222222" stroke-width="0.25" stroke-miterlimit="10" points="748.727,48.459 767.727,46.167 
		774.727,34 	"/>
	<polyline fill="none" stroke="#222222" stroke-width="0.25" stroke-miterlimit="10" points="765.561,53.201 775.645,50.146 
		780.352,38 	"/>
	<polyline fill="none" stroke="#222222" stroke-width="0.25" stroke-miterlimit="10" points="772.955,55.292 784.977,49.813 
		788.893,38 	"/>
	
		<line fill="none" stroke="#222222" stroke-width="0.25" stroke-miterlimit="10" x1="926.477" y1="38.833" x2="939.477" y2="32.167"/>
	<polyline fill="none" stroke="#222222" stroke-width="0.25" stroke-miterlimit="10" points="898.477,6.167 893.727,9.167 
		905.977,7.667 904.977,6.167 	"/>
	<polyline fill="none" stroke="#222222" stroke-width="0.25" stroke-miterlimit="10" points="876.977,11.667 866.727,18.5 
		905.977,15.083 912.727,11.667 	"/>
	<polyline fill="none" stroke="#222222" stroke-width="0.25" stroke-miterlimit="10" points="854.643,16.667 851.477,16.667 
		838.977,28.917 907.727,22.167 920.227,16.667 	"/>
	<polyline fill="none" stroke="#222222" stroke-width="0.25" stroke-miterlimit="10" points="835.727,22.167 824.477,35.5 
		811.893,41.167 908.727,30.667 926.477,22.167 	"/>
	<polyline fill="none" stroke="#222222" stroke-width="0.25" stroke-miterlimit="10" points="932.977,26.917 910.977,39.417 
		788.893,52.333 	"/>
	<polyline fill="none" stroke="#222222" stroke-width="0.25" stroke-miterlimit="10" points="777.227,55.292 795.227,46.542 
		801.727,40.417 804.977,32.167 	"/>
	<polyline fill="none" stroke="#222222" stroke-width="0.25" stroke-miterlimit="10" points="820.477,26.917 820.477,31.667 
		809.477,42.167 783.977,53.201 	"/>
	<polyline fill="none" stroke="#222222" stroke-width="0.25" stroke-miterlimit="10" points="1006.477,10.417 1030.727,9.167 
		1041.477,6.167 	"/>
	<polyline fill="none" stroke="#222222" stroke-width="0.25" stroke-miterlimit="10" points="1017.477,2.667 1027.477,2.667 
		1032.477,1.417 	"/>
	<polyline fill="none" stroke="#222222" stroke-width="0.25" stroke-miterlimit="10" points="996.727,18.5 1032.477,15.083 
		1047.977,11.667 	"/>
	<path fill="none" stroke="#222222" stroke-width="0.25" stroke-miterlimit="10" d="M1057.227,16.667"/>
	<polyline fill="none" stroke="#222222" stroke-width="0.25" stroke-miterlimit="10" points="985.234,34 1029.727,28.604 
		1059.727,22.167 	"/>
	<polyline fill="none" stroke="#222222" stroke-width="0.25" stroke-miterlimit="10" points="987.061,26.726 1030.727,22.167 
		1057.227,16.667 	"/>
</g>
</svg>
