<?xml version="1.0" encoding="utf-8"?>
<!-- Generator: Adobe Illustrator 16.0.0, SVG Export Plug-In . SVG Version: 6.00 Build 0)  -->
<!DOCTYPE svg PUBLIC "-//W3C//DTD SVG 1.1//EN" "http://www.w3.org/Graphics/SVG/1.1/DTD/svg11.dtd">
<svg version="1.1" xmlns="http://www.w3.org/2000/svg" xmlns:xlink="http://www.w3.org/1999/xlink" x="0px" y="0px" width="606px"
	 height="87.167px" viewBox="0 0 606 87.167" enable-background="new 0 0 606 87.167" xml:space="preserve">
<g id="Layer_1" display="none">
	
		<image display="inline" overflow="visible" width="602" height="302" xlink:href="mount-black.png"  transform="matrix(0.9999 0 0 0.9999 2.5 -79.8335)">
	</image>
	<path display="inline" fill="none" d="M2.5,120.167"/>
</g>
<g id="fe">
	<polyline fill="none" stroke="#FFFFFF" stroke-width="0.25" stroke-miterlimit="10" points="2.5,203.167 106.833,160.5 
		142.5,156.5 123.833,150.5 	"/>
	<polyline fill="none" stroke="#FFFFFF" stroke-width="0.25" stroke-miterlimit="10" points="26.5,222.128 100.167,190.167 
		205.167,170.167 161.167,152.5 	"/>
	<polyline fill="none" stroke="#FFFFFF" stroke-width="0.25" stroke-miterlimit="10" points="90.5,222.128 271.167,182.833 
		191.167,154.167 	"/>
	<polyline fill="none" stroke="#FFFFFF" stroke-width="0.25" stroke-miterlimit="10" points="220.833,223.833 287.5,205.5 
		271.167,225.167 	"/>
	<polyline fill="none" stroke="#FFFFFF" stroke-width="0.25" stroke-miterlimit="10" points="313.167,222.128 472.167,187.314 
		443.167,225.167 	"/>
	<polyline fill="none" stroke="#FFFFFF" stroke-width="0.25" stroke-miterlimit="10" points="478.834,225.167 500.501,191.167 
		525.834,181.833 520.501,154.167 503.834,109.167 509.834,111.167 416.501,74.5 409.168,109.5 411.834,107.833 345.501,162.833 
		355.5,156.333 397.167,182.167 404.333,181.667 305,201.333 288.667,224 	"/>
	<polygon fill="none" stroke="#FFFFFF" stroke-width="0.25" stroke-miterlimit="10" points="434,88.167 434,98.917 437.25,96.417 
		421.443,108.452 414.75,113.667 423.25,109.167 465.5,127.542 460.5,99.917 466.267,100.246 432.596,86.061 	"/>
	<polyline fill="none" stroke="#FFFFFF" stroke-width="0.25" stroke-miterlimit="10" points="511.5,222.128 574.166,193.833 
		555.5,136.5 547,119.167 555,120.917 423.5,74.5 498.833,61.667 545.5,60.167 575.25,74.5 588.75,108.167 611.5,109.167 	"/>
	<polyline fill="none" stroke="#FFFFFF" stroke-width="0.25" stroke-miterlimit="10" points="606,147.917 591,142.667 606,171.167 	
		"/>
	<line fill="none" stroke="#FFFFFF" stroke-width="0.25" stroke-miterlimit="10" x1="592.25" y1="223.167" x2="606" y2="214.167"/>
	<polygon fill="none" stroke="#FFFFFF" stroke-width="0.25" stroke-miterlimit="10" points="572,124.167 453,81.417 463,83.417 
		503.75,74.5 535,73.417 552.75,83.167 563.5,118.917 	"/>
	<polygon fill="none" stroke="#FFFFFF" stroke-width="0.25" stroke-miterlimit="10" points="539.5,108.917 486,90.167 
		494.75,91.667 508,87.667 523.5,87.667 530.25,91.417 532,104.417 	"/>
	<polyline fill="none" stroke="#FFFFFF" stroke-width="0.25" stroke-miterlimit="10" points="604.425,77.667 599.125,65.667 
		556.5,47.667 491.28,48.167 426,60.167 417,66.667 455.5,37.417 452,38.167 457.333,20.333 469,16.667 	"/>
	<polyline fill="none" stroke="#FFFFFF" stroke-width="0.25" stroke-miterlimit="10" points="604.425,50.917 566.25,35.417 
		488,35.667 452,43.167 477.25,25.417 574.75,25.417 596.25,33.167 589,29.167 592,22.667 	"/>
	<polyline fill="none" stroke="#FFFFFF" stroke-width="0.25" stroke-miterlimit="10" points="598.833,23.667 601.333,23.667 
		601.333,22.667 	"/>
	<polyline fill="none" stroke="#FFFFFF" stroke-width="0.25" stroke-miterlimit="10" points="575.667,21 575.667,18.5 593.333,15.5 
			"/>
	<polyline fill="none" stroke="#FFFFFF" stroke-width="0.25" stroke-miterlimit="10" points="568.167,18.25 568.167,9.833 
		572,9.833 	"/>
	
		<line fill="none" stroke="#FFFFFF" stroke-width="0.25" stroke-miterlimit="10" x1="560.833" y1="14.042" x2="560.833" y2="6.167"/>
	<line fill="none" stroke="#FFFFFF" stroke-width="0.25" stroke-miterlimit="10" x1="553" y1="8.667" x2="553" y2="4.5"/>
	<line fill="none" stroke="#FFFFFF" stroke-width="0.25" stroke-miterlimit="10" x1="544.5" y1="3.667" x2="544.5" y2="1"/>
	<polyline fill="none" stroke="#FFFFFF" stroke-width="0.25" stroke-miterlimit="10" points="537.5,0 529.833,0 515,8.667 	"/>
	<polyline fill="none" stroke="#FFFFFF" stroke-width="0.25" stroke-miterlimit="10" points="517.5,3.667 479.75,19.917 
		479.75,23.667 	"/>
	<polyline fill="none" stroke="#FFFFFF" stroke-width="0.25" stroke-miterlimit="10" points="443.25,48.667 466.267,30.417 
		466.267,19.917 515,3.667 	"/>
	<polyline fill="none" stroke="#FFFFFF" stroke-width="0.25" stroke-miterlimit="10" points="303.5,98.292 392.667,74.5 399,81.167 
		388.5,117.667 303.5,187.314 220.833,154.167 	"/>
	<polyline fill="none" stroke="#FFFFFF" stroke-width="0.25" stroke-miterlimit="10" points="244.167,154.167 303.462,177.5 
		363.167,130.907 377.5,98.292 359.167,84.5 	"/>
	<polyline fill="none" stroke="#FFFFFF" stroke-width="0.25" stroke-miterlimit="10" points="267.167,156.917 303.462,169.5 
		345.167,138.833 340.167,141.147 351.833,117.833 324.921,92.576 380.167,53.833 404.833,61.833 392.667,74.5 	"/>
	<polyline fill="none" stroke="#FFFFFF" stroke-width="0.25" stroke-miterlimit="10" points="409.167,71.147 440.508,45.167 
		445.834,27.5 434.5,26.167 442.167,15.5 439.167,15.5 	"/>
	<line fill="none" stroke="#FFFFFF" stroke-width="0.25" stroke-miterlimit="10" x1="447.5" y1="18.25" x2="457.333" y2="20.333"/>
	<polyline fill="none" stroke="#FFFFFF" stroke-width="0.25" stroke-miterlimit="10" points="2.5,136.5 55.5,131 73.833,138.833 
		172.833,144.167 275.417,110.581 280.5,108.917 276.833,111.667 301.5,114.167 324.833,141.147 319.5,150.5 303.462,162.167 
		287.5,156.833 	"/>
	<polyline fill="none" stroke="#FFFFFF" stroke-width="0.25" stroke-miterlimit="10" points="414.75,15.5 419.5,19.292 
		408.333,32.833 432.5,38.167 425.833,53.833 402.833,72.333 	"/>
	<polyline fill="none" stroke="#FFFFFF" stroke-width="0.25" stroke-miterlimit="10" points="399,73.417 414,60.833 419,48.667 
		380.167,38.5 383.25,36.167 375.5,21.917 	"/>
	<polyline fill="none" stroke="#FFFFFF" stroke-width="0.25" stroke-miterlimit="10" points="2.5,118.667 63,114.667 87.5,124.167 
		174.5,128.917 292,93.417 300.75,77.667 366.25,40.917 	"/>
	<polyline fill="none" stroke="#FFFFFF" stroke-width="0.25" stroke-miterlimit="10" points="2.5,103.167 67.5,98.292 104,108.917 
		178,114.167 279.5,84.5 299.5,53.833 	"/>
	<polyline fill="none" stroke="#FFFFFF" stroke-width="0.25" stroke-miterlimit="10" points="2.5,87.667 72.5,84 115.833,95.167 
		178.5,98.792 265.25,75.542 285.5,50.917 	"/>
	<polyline fill="none" stroke="#FFFFFF" stroke-width="0.25" stroke-miterlimit="10" points="2.5,73.417 79,69.417 131,82.667 
		180.833,84.5 251.5,67.167 270,47.167 	"/>
	<polyline fill="none" stroke="#FFFFFF" stroke-width="0.25" stroke-miterlimit="10" points="160.25,31.167 146.75,39.417 
		124.251,48.822 116.25,52.167 124.375,49.667 154.375,56.417 184.375,57.236 223.125,49.167 235.625,39.542 	"/>
	<polyline fill="none" stroke="#FFFFFF" stroke-width="0.25" stroke-miterlimit="10" points="149.333,40.917 168.833,44.201 
		187.333,44.201 207.383,40.168 215.333,34.5 	"/>
	<polyline fill="none" stroke="#FFFFFF" stroke-width="0.25" stroke-miterlimit="10" points="356.25,43.324 352,31.167 
		251.75,42.167 254,43.324 235.5,59.167 182,71.147 141.5,69.667 97,59.167 	"/>
	<polyline fill="none" stroke="#FFFFFF" stroke-width="0.25" stroke-miterlimit="10" points="332.25,47.667 331.421,42.067 
		277.75,47.667 	"/>
	<polyline fill="none" stroke="#FFFFFF" stroke-width="0.25" stroke-miterlimit="10" points="196.75,29.792 189.75,32.917 
		180.75,32.917 175.938,31.167 	"/>
	<polyline fill="none" stroke="#FFFFFF" stroke-width="0.25" stroke-miterlimit="10" points="0,60.167 26.5,60.167 94.5,48.667 
		142.5,28.167 	"/>
	<polyline fill="none" stroke="#FFFFFF" stroke-width="0.25" stroke-miterlimit="10" points="2.5,40.917 109.5,28.167 120,23.667 	
		"/>
</g>
</svg>
